<svg width="452.9" height="100.2" viewBox="0 0 452.9 100.2" xmlns="http://www.w3.org/2000/svg"><g id="svgGroup" stroke-linecap="round" fill-rule="evenodd" font-size="9pt" stroke="#fff" stroke-width="0.25mm" fill="#fff" style="stroke:#fff;stroke-width:0.25mm;fill:white"><path d="M 60.3 4.2 L 76.1 4.2 L 76.1 74 L 62.1 74 L 62.1 28.6 L 43.4 74 L 32.8 74 L 14 28.6 L 14 74 L 0 74 L 0 4.2 L 15.9 4.2 L 38.1 56.1 L 60.3 4.2 Z M 452.9 25.9 L 436.8 25.9 A 18.26 18.26 0 0 0 433.753 21.351 A 15.659 15.659 0 0 0 430.05 18.4 A 18.772 18.772 0 0 0 422.933 16.076 A 23.762 23.762 0 0 0 420 15.9 A 22.278 22.278 0 0 0 413.565 16.802 A 19.37 19.37 0 0 0 409.15 18.75 A 19.413 19.413 0 0 0 401.833 26.638 A 23.081 23.081 0 0 0 401.75 26.8 A 23.758 23.758 0 0 0 399.537 33.61 A 31.834 31.834 0 0 0 399.1 39 Q 399.1 45.9 401.75 51.15 A 20.031 20.031 0 0 0 406.259 57.121 A 18.88 18.88 0 0 0 409.15 59.25 A 20.094 20.094 0 0 0 417.943 62.016 A 24.721 24.721 0 0 0 420 62.1 A 21.65 21.65 0 0 0 425.519 61.422 A 17.915 17.915 0 0 0 430.05 59.55 A 16.541 16.541 0 0 0 436.002 53.503 A 20.652 20.652 0 0 0 436.8 52 L 452.9 52 A 32.96 32.96 0 0 1 447.2 62.66 A 30.434 30.434 0 0 1 440.65 68.65 A 34.399 34.399 0 0 1 424.505 74.382 A 43.597 43.597 0 0 1 420.1 74.6 A 37.877 37.877 0 0 1 408.362 72.823 A 34.224 34.224 0 0 1 402.05 70.05 Q 394 65.5 389.35 57.4 A 35.184 35.184 0 0 1 384.863 42.785 A 43.081 43.081 0 0 1 384.7 39 A 39.081 39.081 0 0 1 386.296 27.668 A 34.272 34.272 0 0 1 389.35 20.55 Q 394 12.4 402.05 7.85 A 35.407 35.407 0 0 1 417.63 3.371 A 42.429 42.429 0 0 1 420.1 3.3 A 38.518 38.518 0 0 1 431.871 5.044 A 33.481 33.481 0 0 1 440.6 9.3 Q 449.4 15.3 452.9 25.9 Z M 195.8 18.6 L 210.7 18.6 L 176.4 100.2 L 161.5 100.2 L 173.5 72.6 L 151.3 18.6 L 167 18.6 L 181.3 57.3 L 195.8 18.6 Z M 258.1 26.3 L 258.1 0 L 272.3 0 L 272.3 74 L 258.1 74 L 258.1 65.8 A 18.497 18.497 0 0 1 252.252 71.558 A 22.524 22.524 0 0 1 250.8 72.4 A 21.114 21.114 0 0 1 243.985 74.605 A 27.314 27.314 0 0 1 239.9 74.9 Q 232.9 74.9 227.1 71.3 A 24.734 24.734 0 0 1 218.607 62.364 A 29.853 29.853 0 0 1 217.95 61.15 Q 214.6 54.6 214.6 46.1 Q 214.6 37.7 217.95 31.2 A 25.755 25.755 0 0 1 222.943 24.392 A 23.327 23.327 0 0 1 227.1 21.2 Q 232.9 17.7 240 17.7 Q 245.4 17.7 250.3 20.05 A 22.368 22.368 0 0 1 255.18 23.184 A 18.97 18.97 0 0 1 258.1 26.3 Z M 337.1 50.5 L 296.6 50.5 Q 297.1 56.5 300.8 59.9 A 12.795 12.795 0 0 0 309.149 63.283 A 16.604 16.604 0 0 0 309.9 63.3 Q 317.7 63.3 321 56.6 L 336.1 56.6 Q 333.7 64.6 326.9 69.75 A 25.141 25.141 0 0 1 315.382 74.515 A 33.694 33.694 0 0 1 310.2 74.9 A 30.891 30.891 0 0 1 301.337 73.665 A 27.022 27.022 0 0 1 295.85 71.35 Q 289.5 67.8 285.95 61.3 Q 282.4 54.8 282.4 46.3 A 35.78 35.78 0 0 1 283.248 38.343 A 28.183 28.183 0 0 1 285.9 31.2 Q 289.4 24.7 295.7 21.2 A 27.733 27.733 0 0 1 305.738 17.977 A 35.017 35.017 0 0 1 310.2 17.7 A 31.503 31.503 0 0 1 318.565 18.776 A 27.018 27.018 0 0 1 324.35 21.1 Q 330.6 24.5 334.05 30.75 A 27.694 27.694 0 0 1 337.257 40.927 A 34.879 34.879 0 0 1 337.5 45.1 A 38.688 38.688 0 0 1 337.402 47.929 A 28.241 28.241 0 0 1 337.1 50.5 Z M 129.9 26.5 L 129.9 18.6 L 144 18.6 L 144 74 L 129.9 74 L 129.9 65.9 A 19.688 19.688 0 0 1 124.96 70.809 A 24.679 24.679 0 0 1 122.45 72.35 A 21.31 21.31 0 0 1 115.233 74.651 A 27.168 27.168 0 0 1 111.5 74.9 Q 104.5 74.9 98.75 71.3 A 24.734 24.734 0 0 1 90.525 62.741 A 29.952 29.952 0 0 1 89.65 61.15 Q 86.3 54.6 86.3 46.1 Q 86.3 37.7 89.65 31.2 A 26.056 26.056 0 0 1 94.474 24.539 A 23.289 23.289 0 0 1 98.75 21.2 A 24.182 24.182 0 0 1 111.378 17.701 A 28.681 28.681 0 0 1 111.6 17.7 A 26.101 26.101 0 0 1 117.072 18.249 A 20.239 20.239 0 0 1 122.45 20.2 A 23.797 23.797 0 0 1 127.208 23.525 A 20.199 20.199 0 0 1 129.9 26.5 Z M 378.7 17.8 L 378.7 32.5 L 375 32.5 A 22.449 22.449 0 0 0 371.28 32.788 Q 369.276 33.125 367.687 33.858 A 10.037 10.037 0 0 0 365.05 35.6 A 8.784 8.784 0 0 0 362.944 38.724 Q 361.7 41.708 361.7 46.4 L 361.7 74 L 347.7 74 L 347.7 18.6 L 361.7 18.6 L 361.7 27.2 Q 364.4 22.8 368.75 20.3 A 18.85 18.85 0 0 1 376.31 17.92 A 23.395 23.395 0 0 1 378.7 17.8 Z M 129.9 46.3 A 21.755 21.755 0 0 0 129.517 42.115 A 15.729 15.729 0 0 0 127.9 37.55 A 14.54 14.54 0 0 0 124.488 33.335 A 13.72 13.72 0 0 0 122.5 31.95 Q 119.1 30 115.2 30 Q 111.3 30 108 31.9 A 13.928 13.928 0 0 0 103.356 36.299 A 17.098 17.098 0 0 0 102.65 37.45 A 15.719 15.719 0 0 0 100.888 42.54 A 21.102 21.102 0 0 0 100.6 46.1 A 20.612 20.612 0 0 0 101.081 50.65 A 16.106 16.106 0 0 0 102.65 54.85 A 15.763 15.763 0 0 0 105.499 58.644 A 13.876 13.876 0 0 0 108.05 60.6 Q 111.4 62.6 115.2 62.6 Q 119.1 62.6 122.5 60.65 A 14.018 14.018 0 0 0 127.709 55.388 A 16.714 16.714 0 0 0 127.9 55.05 A 15.793 15.793 0 0 0 129.544 50.345 A 21.887 21.887 0 0 0 129.9 46.3 Z M 258.2 46.3 A 21.755 21.755 0 0 0 257.817 42.115 A 15.729 15.729 0 0 0 256.2 37.55 A 14.54 14.54 0 0 0 252.788 33.335 A 13.72 13.72 0 0 0 250.8 31.95 Q 247.4 30 243.5 30 Q 239.6 30 236.3 31.9 A 13.928 13.928 0 0 0 231.656 36.299 A 17.098 17.098 0 0 0 230.95 37.45 A 15.719 15.719 0 0 0 229.188 42.54 A 21.102 21.102 0 0 0 228.9 46.1 A 20.612 20.612 0 0 0 229.381 50.65 A 16.106 16.106 0 0 0 230.95 54.85 A 15.763 15.763 0 0 0 233.799 58.644 A 13.876 13.876 0 0 0 236.35 60.6 Q 239.7 62.6 243.5 62.6 Q 247.4 62.6 250.8 60.65 A 14.018 14.018 0 0 0 256.009 55.388 A 16.714 16.714 0 0 0 256.2 55.05 A 15.793 15.793 0 0 0 257.844 50.345 A 21.887 21.887 0 0 0 258.2 46.3 Z M 296.7 41.1 L 323 41.1 A 12.638 12.638 0 0 0 322.257 36.927 A 10.707 10.707 0 0 0 319.1 32.45 A 13.474 13.474 0 0 0 311.231 29.257 A 17.54 17.54 0 0 0 309.8 29.2 A 14.181 14.181 0 0 0 305.288 29.892 A 12.092 12.092 0 0 0 301.05 32.35 A 12.689 12.689 0 0 0 297.469 37.839 A 17.77 17.77 0 0 0 296.7 41.1 Z" vector-effect="non-scaling-stroke"/></g></svg>